<svg width="55" height="55" viewBox="0 0 55 55" fill="none" xmlns="http://www.w3.org/2000/svg">
<g clip-path="url(#clip0)">
<path d="M26.3154 40.0383L20.5346 33.5975L22.9653 31.4151L26.4997 35.3519L36.584 25.7545L38.8363 28.1205L26.3154 40.0383Z" fill="white"/>
<path d="M48.7743 6.53893H44.3245V3.29142C44.3245 2.73601 43.8801 2.29169 43.3313 2.29169H41.3383C40.7894 2.29169 40.3451 2.73601 40.3451 3.29142V6.53893H17.5341V3.29142C17.5341 2.73601 17.0898 2.29169 16.5409 2.29169H14.548C13.9991 2.29169 13.5548 2.73601 13.5548 3.29142V6.53893H9.11153C6.61546 6.53893 4.58331 8.57108 4.58331 11.0671V46.7701C4.58331 49.2727 6.61546 51.2984 9.11153 51.2984H48.7743C51.2703 51.2984 53.296 49.2727 53.296 46.7701V11.0671C53.296 8.57108 51.2703 6.53893 48.7743 6.53893ZM50.0288 46.7701C50.0288 47.4693 49.4669 48.0312 48.7743 48.0312H9.11153C8.41237 48.0312 7.85042 47.4693 7.85042 46.7701V20.398H50.0288V46.7701Z" fill="white"/>
</g>
<defs>
<clipPath id="clip0">
<rect x="4.58331" y="2.29169" width="48.7126" height="49.0067" fill="white"/>
</clipPath>
</defs>
</svg>
