<svg width="66" height="72" viewBox="0 0 66 72" fill="none" xmlns="http://www.w3.org/2000/svg">
<path fill-rule="evenodd" clip-rule="evenodd" d="M38 1.88677C34.906 0.100446 31.094 0.100445 28 1.88677L5.95703 14.6133C2.86302 16.3996 0.957031 19.7009 0.957031 23.2735V48.7265C0.957031 52.2992 2.86302 55.6004 5.95703 57.3868L28 70.1133C31.094 71.8996 34.906 71.8996 38 70.1133L60.0429 57.3868C63.1369 55.6004 65.0429 52.2992 65.0429 48.7265V23.2735C65.0429 19.7009 63.1369 16.3996 60.0429 14.6133L38 1.88677ZM35.2533 37.2535H45.7467C46.986 37.2535 48 36.2395 48 35.0002C48 33.7608 46.986 32.7468 45.7467 32.7468H35.2533V22.2535C35.2533 21.0142 34.2393 20.0002 33 20.0002C31.7607 20.0002 30.7467 21.0142 30.7467 22.2535V32.7468H20.2533C19.014 32.7468 18 33.7608 18 35.0002C18 36.2395 19.014 37.2535 20.2533 37.2535H30.7467V47.7468C30.7467 48.9862 31.7607 50.0002 33 50.0002C34.2393 50.0002 35.2533 48.9862 35.2533 47.7468V37.2535Z" fill="url(#paint0_radial)"/>
<defs>
<radialGradient id="paint0_radial" cx="0" cy="0" r="1" gradientUnits="userSpaceOnUse" gradientTransform="translate(37.8337 74.653) rotate(-116.471) scale(102.494 76.2318)">
<stop stop-color="#00A1C5"/>
<stop offset="1" stop-color="#2FCFBC"/>
</radialGradient>
</defs>
</svg>
