<svg width="164" height="123" viewBox="0 0 164 123" fill="none" xmlns="http://www.w3.org/2000/svg">
<path d="M83.1207 28.4608C75.2623 29.766 71.4903 36.8863 74.7088 44.3688C78.1118 52.2613 87.8357 57.318 95.8512 55.3227C102.951 53.5665 106.231 46.7673 103.156 39.6402C99.9375 32.1577 90.9653 27.1557 83.1207 28.4608ZM93.2613 48.9472L93.972 50.512L92.4755 50.8195L91.8127 49.323C90.2683 49.6032 88.519 49.5622 86.8995 49.1385L86.4553 46.494C87.7878 46.699 89.4483 46.8903 90.7125 46.6307L91.5667 46.3505C93.0768 45.6057 92.6053 43.706 90.364 43.255C88.6898 42.886 84.2618 43.1593 82.6082 39.483C81.6788 37.4057 82.369 35.2395 85.0408 34.2487L84.3028 32.6155L85.7857 32.308L86.4963 33.8728C87.5828 33.6952 88.8538 33.6268 90.3435 33.7567L90.938 36.3738C89.7763 36.2303 88.5258 36.0937 87.4393 36.3192L87.0293 36.4285C84.9178 36.9888 85.5943 38.991 87.4667 39.4762C90.5622 40.1937 94.259 40.426 95.7213 43.6582C96.9035 46.289 95.53 48.0862 93.2613 48.9472ZM163.727 56.17L137.992 0C95.776 27.3607 49.1112 -2.173 15.3272 30.4357L41.0547 86.6057C77.2577 55.9103 126.601 84.9793 163.727 56.17ZM144.573 43.5147C142.01 47.0748 140.111 51.1475 138.976 55.4115C114.424 62.8872 85.0545 54.038 56.8533 63.8917C52.2955 61.4727 46.5828 59.9557 41.8952 60.0923L34.1393 43.0978C37.0913 39.5103 39.4147 34.0437 40.4123 28.7888C63.6388 20.4112 92.701 29.848 123.765 19.2153C127.326 21.5797 131.487 23.2948 135.587 24.1422L144.573 43.5147ZM164 82.0683C117.144 108.999 79.2735 72.3377 30.75 123L0 54.8717L9.58033 44.8745L35.5948 102.315L35.5812 102.363C86.4553 64.1308 112.08 94.3273 159.326 71.1828C161.335 75.6108 163.187 80.2848 164 82.0683Z" fill="url(#paint0_radial)"/>
<defs>
<radialGradient id="paint0_radial" cx="0" cy="0" r="1" gradientUnits="userSpaceOnUse" gradientTransform="translate(-58.2631 -30.75) rotate(34.6011) scale(330.32 1505.41)">
<stop stop-color="#BDEC1E"/>
<stop offset="0.531378" stop-color="#3FC1ED"/>
<stop offset="1" stop-color="#102BC8"/>
</radialGradient>
</defs>
</svg>
