<svg width="156" height="134" viewBox="0 0 156 134" fill="none" xmlns="http://www.w3.org/2000/svg">
<g filter="url(#filter0_d)">
<path fill-rule="evenodd" clip-rule="evenodd" d="M132.5 33.8C138.296 33.8 143 38.4592 143 44.2V106.6C143 112.341 138.296 117 132.5 117H27.5C21.704 117 17 112.341 17 106.6V44.2C17 38.4592 21.704 33.8 27.5 33.8H53.75V23.4C53.75 17.6592 58.454 13 64.25 13H95.75C101.546 13 106.25 17.6592 106.25 23.4V33.8H132.5ZM132.5 46.8C132.5 45.3648 131.324 44.2 129.875 44.2H30.125C28.676 44.2 27.5 45.3648 27.5 46.8V104C27.5 105.435 28.676 106.6 30.125 106.6H129.875C131.324 106.6 132.5 105.435 132.5 104V46.8ZM85.25 70.2H101V80.6H85.25V96.2H74.75V80.6H59V70.2H74.75V54.6H85.25V70.2ZM93.125 23.4H66.875C65.426 23.4 64.25 24.5648 64.25 26V33.8H95.75V26C95.75 24.5648 94.574 23.4 93.125 23.4Z" fill="url(#paint0_radial)"/>
</g>
<defs>
<filter id="filter0_d" x="0" y="0" width="156" height="134" filterUnits="userSpaceOnUse" color-interpolation-filters="sRGB">
<feFlood flood-opacity="0" result="BackgroundImageFix"/>
<feColorMatrix in="SourceAlpha" type="matrix" values="0 0 0 0 0 0 0 0 0 0 0 0 0 0 0 0 0 0 127 0"/>
<feOffset dx="-2" dy="2"/>
<feGaussianBlur stdDeviation="7.5"/>
<feColorMatrix type="matrix" values="0 0 0 0 0.0627451 0 0 0 0 0.168627 0 0 0 0 0.784314 0 0 0 0.2 0"/>
<feBlend mode="normal" in2="BackgroundImageFix" result="effect1_dropShadow"/>
<feBlend mode="normal" in="SourceGraphic" in2="effect1_dropShadow" result="shape"/>
</filter>
<radialGradient id="paint0_radial" cx="0" cy="0" r="1" gradientUnits="userSpaceOnUse" gradientTransform="translate(-27.7631 -13) rotate(37.207) scale(262.28 1231.62)">
<stop stop-color="#BDEC1E"/>
<stop offset="0.531378" stop-color="#3FC1ED"/>
<stop offset="1" stop-color="#102BC8"/>
</radialGradient>
</defs>
</svg>
