<svg width="189" height="189" viewBox="0 0 189 189" fill="none" xmlns="http://www.w3.org/2000/svg">
<path fill-rule="evenodd" clip-rule="evenodd" d="M49.8341 72.5627C47.017 72.5627 44.7121 70.2578 44.7121 67.4407V57.1966H34.468C31.6509 57.1966 29.3459 54.8917 29.3459 52.0746C29.3459 49.2575 31.6509 46.9525 34.468 46.9525H44.7121V36.7085C44.7121 33.8913 47.017 31.5864 49.8341 31.5864C52.6512 31.5864 54.9561 33.8913 54.9561 36.7085V46.9525H65.2002C68.0173 46.9525 70.3223 49.2575 70.3223 52.0746C70.3223 54.8917 68.0173 57.1966 65.2002 57.1966H54.9561V67.4407C54.9561 70.2578 52.6512 72.5627 49.8341 72.5627ZM82.625 90.4898C85.3699 85.7355 90.4427 82.8068 95.9324 82.8068C101.422 82.8068 106.495 85.7355 109.24 90.4898C111.985 95.2441 111.985 101.102 109.24 105.856C106.495 110.61 101.422 113.539 95.9324 113.539C90.4427 113.539 85.3699 110.61 82.625 105.856C79.8801 101.102 79.8801 95.2441 82.625 90.4898ZM136.909 57.1966H120.672L114.321 50.2818C112.425 48.1818 109.66 46.9525 106.791 46.9525H74.0101C74.8809 48.4891 75.4443 50.1794 75.4443 52.0745C75.4443 57.7088 70.8345 62.3186 65.2002 62.3186H60.0782V67.4407C60.0782 73.0749 55.4683 77.6847 49.8341 77.6847C47.9389 77.6847 46.2487 77.1213 44.7121 76.2506V128.905C44.7121 134.539 49.3219 139.149 54.9561 139.149H136.909C142.543 139.149 147.153 134.539 147.153 128.905V67.4407C147.153 61.8064 142.543 57.1966 136.909 57.1966ZM70.3223 98.1729C70.3223 112.31 81.7956 123.783 95.9324 123.783C110.069 123.783 121.543 112.31 121.543 98.1729C121.543 84.0361 110.069 72.5627 95.9324 72.5627C81.7956 72.5627 70.3223 84.0361 70.3223 98.1729Z" fill="url(#paint0_radial)"/>
<path fill-rule="evenodd" clip-rule="evenodd" d="M94.5001 180.169C141.679 180.169 179.925 141.923 179.925 94.7438C179.925 47.5647 141.679 9.31854 94.5001 9.31854C47.3211 9.31854 9.07489 47.5647 9.07489 94.7438C9.07489 141.923 47.3211 180.169 94.5001 180.169ZM94.5001 188.503C146.282 188.503 188.259 146.526 188.259 94.7438C188.259 42.9619 146.282 0.984375 94.5001 0.984375C42.7182 0.984375 0.740723 42.9619 0.740723 94.7438C0.740723 146.526 42.7182 188.503 94.5001 188.503Z" fill="url(#paint1_radial)"/>
<defs>
<radialGradient id="paint0_radial" cx="0" cy="0" r="1" gradientUnits="userSpaceOnUse" gradientTransform="translate(43.6234 17.7777) rotate(52.3945) scale(139.553 133.336)">
<stop stop-color="#102BC8"/>
<stop offset="1" stop-color="#3FC1ED"/>
</radialGradient>
<radialGradient id="paint1_radial" cx="0" cy="0" r="1" gradientUnits="userSpaceOnUse" gradientTransform="translate(23.4668 -23.089) rotate(54.8821) scale(235.633 219.133)">
<stop stop-color="#102BC8"/>
<stop offset="1" stop-color="#3FC1ED"/>
</radialGradient>
</defs>
</svg>
