<svg width="112" height="112" viewBox="0 0 112 112" fill="none" xmlns="http://www.w3.org/2000/svg">
<g filter="url(#filter0_d)">
<circle cx="56" cy="54" r="34.1667" fill="white"/>
<path fill-rule="evenodd" clip-rule="evenodd" d="M21.8333 54C21.8333 35.1058 37.1058 19.8333 56 19.8333C74.8942 19.8333 90.1667 35.1058 90.1667 54C90.1667 72.8942 74.8942 88.1667 56 88.1667C37.1058 88.1667 21.8333 72.8942 21.8333 54ZM65.8741 68.6917C67.2066 70.0242 69.3591 70.0242 70.6916 68.6917C71.99 67.3592 71.99 65.1725 70.6916 63.8742L60.8175 54L70.6916 44.1258C72.0241 42.7933 72.0241 40.6408 70.6916 39.3083C69.3591 37.9758 67.2066 37.9758 65.8741 39.3083L56 49.1825L46.1258 39.3083C44.7933 37.9758 42.6408 37.9758 41.3083 39.3083C40.6685 39.9467 40.309 40.8133 40.309 41.7171C40.309 42.6209 40.6685 43.4875 41.3083 44.1258L51.1825 54L41.3083 63.8742C40.6685 64.5125 40.309 65.3792 40.309 66.2829C40.309 67.1867 40.6685 68.0533 41.3083 68.6917C42.6408 70.0242 44.7933 70.0242 46.1258 68.6917L56 58.8175L65.8741 68.6917Z" fill="url(#paint0_radial)"/>
</g>
<defs>
<filter id="filter0_d" x="0" y="0" width="112" height="112" filterUnits="userSpaceOnUse" color-interpolation-filters="sRGB">
<feFlood flood-opacity="0" result="BackgroundImageFix"/>
<feColorMatrix in="SourceAlpha" type="matrix" values="0 0 0 0 0 0 0 0 0 0 0 0 0 0 0 0 0 0 127 0"/>
<feOffset dy="2"/>
<feGaussianBlur stdDeviation="7.5"/>
<feColorMatrix type="matrix" values="0 0 0 0 0.0627451 0 0 0 0 0.168627 0 0 0 0 0.784314 0 0 0 0.49 0"/>
<feBlend mode="normal" in2="BackgroundImageFix" result="effect1_dropShadow"/>
<feBlend mode="normal" in="SourceGraphic" in2="effect1_dropShadow" result="shape"/>
</filter>
<radialGradient id="paint0_radial" cx="0" cy="0" r="1" gradientUnits="userSpaceOnUse" gradientTransform="translate(30.1149 11.0608) rotate(54.8821) scale(85.8666 79.8538)">
<stop stop-color="#102BC8"/>
<stop offset="1" stop-color="#3FC1ED"/>
</radialGradient>
</defs>
</svg>
