<svg width="150" height="150" viewBox="0 0 150 150" fill="none" xmlns="http://www.w3.org/2000/svg">
<g filter="url(#filter0_d)">
<path fill-rule="evenodd" clip-rule="evenodd" d="M15 73C15 39.88 41.88 13 75 13C108.12 13 135 39.88 135 73C135 106.12 108.12 133 75 133C41.88 133 15 106.12 15 73ZM37.1998 77.2003L58.7398 98.7403C61.0798 101.08 64.9198 101.08 67.1998 98.7403L112.74 53.2003C115.08 50.8603 115.08 47.0803 112.74 44.7403C110.4 42.4003 106.62 42.4003 104.28 44.7403L62.9998 86.0203L45.6598 68.7403C43.3198 66.4003 39.5398 66.4003 37.1998 68.7403C36.0763 69.8613 35.4449 71.3832 35.4449 72.9703C35.4449 74.5574 36.0763 76.0793 37.1998 77.2003Z" fill="url(#paint0_radial)"/>
</g>
<defs>
<filter id="filter0_d" x="0" y="0" width="150" height="150" filterUnits="userSpaceOnUse" color-interpolation-filters="sRGB">
<feFlood flood-opacity="0" result="BackgroundImageFix"/>
<feColorMatrix in="SourceAlpha" type="matrix" values="0 0 0 0 0 0 0 0 0 0 0 0 0 0 0 0 0 0 127 0"/>
<feOffset dy="2"/>
<feGaussianBlur stdDeviation="7.5"/>
<feColorMatrix type="matrix" values="0 0 0 0 0.0627451 0 0 0 0 0.168627 0 0 0 0 0.784314 0 0 0 0.49 0"/>
<feBlend mode="normal" in2="BackgroundImageFix" result="effect1_dropShadow"/>
<feBlend mode="normal" in="SourceGraphic" in2="effect1_dropShadow" result="shape"/>
</filter>
<radialGradient id="paint0_radial" cx="0" cy="0" r="1" gradientUnits="userSpaceOnUse" gradientTransform="translate(15.5625 13.8451) rotate(45.3518) scale(208.911 138.485)">
<stop offset="0.132597" stop-color="#F5F7FF"/>
<stop offset="1" stop-color="#CCE4ED"/>
</radialGradient>
</defs>
</svg>
