<svg width="99" height="99" viewBox="0 0 99 99" fill="none" xmlns="http://www.w3.org/2000/svg">
<g clip-path="url(#clip0)">
<path d="M97.2769 21.8986V29.179L54.5705 56.0778C52.2182 57.5598 49.1837 57.5598 46.8431 56.0778L4.125 29.0614V21.8986C4.125 18.9111 6.54789 16.5 9.52358 16.5H91.8901C94.8658 16.5 97.2769 18.9111 97.2769 21.8986Z" fill="url(#paint0_radial)"/>
<path d="M58.3342 62.0536L97.2769 37.5189V76.9438C97.2769 79.9195 94.8658 82.3306 91.8901 82.3306H9.52358C6.54789 82.3306 4.125 79.9195 4.125 76.9438V37.4131L43.0677 62.0419C45.3965 63.5121 48.0428 64.2413 50.7009 64.2413C53.3591 64.2413 56.0172 63.5121 58.3342 62.0536Z" fill="url(#paint1_radial)"/>
</g>
<defs>
<radialGradient id="paint0_radial" cx="0" cy="0" r="1" gradientUnits="userSpaceOnUse" gradientTransform="translate(-28.9684 6.32769) rotate(21.8899) scale(166.436 561.389)">
<stop stop-color="#BDEC1E"/>
<stop offset="0.531378" stop-color="#3FC1ED"/>
<stop offset="1" stop-color="#102BC8"/>
</radialGradient>
<radialGradient id="paint1_radial" cx="0" cy="0" r="1" gradientUnits="userSpaceOnUse" gradientTransform="translate(-28.9684 26.1837) rotate(23.9194) scale(168.946 610.52)">
<stop stop-color="#BDEC1E"/>
<stop offset="0.531378" stop-color="#3FC1ED"/>
<stop offset="1" stop-color="#102BC8"/>
</radialGradient>
<clipPath id="clip0">
<rect width="93.1519" height="65.8297" fill="white" transform="translate(4.125 16.5)"/>
</clipPath>
</defs>
</svg>
