<svg width="140" height="157" viewBox="0 0 140 157" fill="none" xmlns="http://www.w3.org/2000/svg">
<g filter="url(#filter0_d)">
<path d="M66.5 12.9485C38.6167 14.7568 17.5 39.1985 17.5 67.1402V106.165C17.5 115.848 25.3167 123.665 35 123.665H40.8333C47.25 123.665 52.5 118.415 52.5 111.998V88.6652C52.5 82.2485 47.25 76.9985 40.8333 76.9985H29.1667V67.0235C29.1667 44.6235 46.4333 25.1401 68.775 24.4985C91.9333 23.8568 110.833 42.3485 110.833 65.3318V76.9985H99.1667C92.75 76.9985 87.5 82.2485 87.5 88.6652V111.998C87.5 118.415 92.75 123.665 99.1667 123.665H110.833V129.498H75.8333C72.625 129.498 70 132.123 70 135.332C70 138.54 72.625 141.165 75.8333 141.165H105C114.683 141.165 122.5 133.348 122.5 123.665V65.3318C122.5 35.1735 97.0667 10.9651 66.5 12.9485Z" fill="url(#paint0_radial)"/>
</g>
<defs>
<filter id="filter0_d" x="-13.8158" y="-4.97369" width="167.632" height="167.632" filterUnits="userSpaceOnUse" color-interpolation-filters="sRGB">
<feFlood flood-opacity="0" result="BackgroundImageFix"/>
<feColorMatrix in="SourceAlpha" type="matrix" values="0 0 0 0 0 0 0 0 0 0 0 0 0 0 0 0 0 0 127 0"/>
<feOffset dy="1.84211"/>
<feGaussianBlur stdDeviation="6.9079"/>
<feColorMatrix type="matrix" values="0 0 0 0 0.0627451 0 0 0 0 0.168627 0 0 0 0 0.784314 0 0 0 0.49 0"/>
<feBlend mode="normal" in2="BackgroundImageFix" result="effect1_dropShadow"/>
<feBlend mode="normal" in="SourceGraphic" in2="effect1_dropShadow" result="shape"/>
</filter>
<radialGradient id="paint0_radial" cx="0" cy="0" r="1" gradientUnits="userSpaceOnUse" gradientTransform="translate(17.9922 13.7385) rotate(51.0544) scale(204.366 132.468)">
<stop offset="0.132597" stop-color="#F5F7FF"/>
<stop offset="1" stop-color="#CCE4ED"/>
</radialGradient>
</defs>
</svg>
