<svg width="112" height="112" viewBox="0 0 112 112" fill="none" xmlns="http://www.w3.org/2000/svg">
<path fill-rule="evenodd" clip-rule="evenodd" d="M93.3333 18.6667H18.6666C13.5333 18.6667 9.37998 22.8667 9.37998 28L9.33331 84C9.33331 89.1333 13.5333 93.3333 18.6666 93.3333H93.3333C98.4667 93.3333 102.667 89.1333 102.667 84V28C102.667 22.8667 98.4667 18.6667 93.3333 18.6667ZM93.3333 79.3333C93.3333 81.9 91.2333 84 88.6666 84H23.3333C20.7666 84 18.6666 81.9 18.6666 79.3333V37.3333L51.0533 57.5867C54.0866 59.5 57.9133 59.5 60.9466 57.5867L93.3333 37.3333V79.3333ZM18.6666 28L56 51.3333L93.3333 28H18.6666Z" fill="url(#paint0_radial)"/>
<defs>
<radialGradient id="paint0_radial" cx="0" cy="0" r="1" gradientUnits="userSpaceOnUse" gradientTransform="translate(102.667 93.3333) rotate(-141.34) scale(119.525 593.388)">
<stop stop-color="#00A1C5"/>
<stop offset="0.546961" stop-color="#2FCFBC"/>
</radialGradient>
</defs>
</svg>
