<svg width="22" height="22" viewBox="0 0 22 22" fill="none" xmlns="http://www.w3.org/2000/svg">
<g clip-path="url(#clip0)">
<path d="M19.2833 1.85334H17.3444V0.436248C17.3444 0.193888 17.1506 0 16.911 0H16.0414C15.8019 0 15.608 0.193888 15.608 0.436248V1.85334H5.65127V0.436248C5.65127 0.193888 5.45738 0 5.21787 0H4.34823C4.10872 0 3.91483 0.193888 3.91483 0.436248V1.85334H1.97595C0.886754 1.85334 0 2.7401 0 3.82929V19.4088C0 20.5008 0.886754 21.3847 1.97595 21.3847H19.2833C20.3725 21.3847 21.2593 20.5008 21.2593 19.4088V3.82929C21.2593 2.7401 20.3725 1.85334 19.2833 1.85334ZM19.8336 19.4088C19.8336 19.7139 19.5856 19.9591 19.2833 19.9591H1.97595C1.67371 19.9591 1.42565 19.7139 1.42565 19.4088V7.90094H19.8336V19.4088Z" fill="#029AF0"/>
<path d="M15.6233 10.7158H5.40283V12.1415H15.6233V10.7158Z" fill="#029AF0"/>
<path d="M11.6971 15.1611H5.40283V16.5868H11.6971V15.1611Z" fill="#029AF0"/>
</g>
<defs>
<clipPath id="clip0">
<rect width="21.2593" height="21.3847" fill="white"/>
</clipPath>
</defs>
</svg>
