<svg width="20" height="19" viewBox="0 0 20 19" fill="none" xmlns="http://www.w3.org/2000/svg">
<g clip-path="url(#clip0)">
<path d="M5.02668 18.6016C5.02668 17.5544 5.02668 16.5071 5.02668 15.4449C5.49046 15.4449 5.93928 15.43 6.3881 15.4449C7.06133 15.4748 7.62983 15.2205 8.10857 14.7717C8.57235 14.3528 8.88653 13.8292 8.96133 13.1859C8.96133 13.141 8.96133 13.0811 8.96133 13.0363C8.96133 12.3032 8.96133 11.5851 8.96133 10.852C8.96133 10.7473 8.99125 10.7174 9.08102 10.6874C9.75424 10.478 10.4275 10.2685 11.1007 10.0441C11.1157 10.0441 11.1306 10.0292 11.1456 10.0292C11.355 9.95437 11.3999 9.84965 11.2653 9.67012C10.981 9.23626 10.6818 8.8024 10.3975 8.36854C9.94873 7.69532 9.49991 7.02209 9.05109 6.34886C8.99125 6.25909 8.96133 6.16933 8.96133 6.06461C8.96133 5.31657 8.87157 4.5835 8.60227 3.88035C8.10857 2.6087 7.21094 1.74098 5.96921 1.18744C5.14637 0.813424 4.26369 0.633897 3.36605 0.529172C2.72275 0.454369 2.06448 0.424448 1.42117 0.46933C1.107 0.48429 0.777864 0.544133 0.44873 0.574054" stroke="#2FCFBC" stroke-miterlimit="10" stroke-linecap="round"/>
<path d="M18.4464 16.2383C18.8802 16.2383 19.2393 16.5973 19.2393 17.0312C19.2393 17.4651 18.8802 17.8241 18.4464 17.8241C18.0125 17.8241 17.6684 17.4651 17.6684 17.0312C17.6535 16.5973 18.0125 16.2383 18.4464 16.2383Z" fill="#2FCFBC"/>
<path d="M17.6533 13.8749C17.6533 13.4411 18.0124 13.082 18.4462 13.082C18.8801 13.082 19.2392 13.4411 19.2392 13.8749C19.2392 14.3088 18.8801 14.6529 18.4612 14.6679C18.0273 14.6679 17.6683 14.3088 17.6533 13.8749Z" fill="#2FCFBC"/>
<path d="M15.2896 15.4454C15.2896 15.0115 15.6486 14.6525 16.0825 14.6674C16.5163 14.6674 16.8604 15.0265 16.8604 15.4604C16.8604 15.8942 16.5014 16.2533 16.0675 16.2533C15.6486 16.2383 15.2896 15.8793 15.2896 15.4454Z" fill="#2FCFBC"/>
<path d="M17.6533 10.7032C17.6533 10.2693 18.0124 9.9103 18.4462 9.92526C18.8801 9.92526 19.2391 10.2843 19.2242 10.7182C19.2242 11.152 18.8651 11.4961 18.4313 11.4961C18.0124 11.4961 17.6533 11.1371 17.6533 10.7032Z" fill="#2FCFBC"/>
<path d="M15.2896 12.288C15.2896 11.8542 15.6486 11.4951 16.0825 11.4951C16.5163 11.4951 16.8754 11.8542 16.8754 12.288C16.8754 12.7219 16.5163 13.066 16.0974 13.0809C15.6486 13.0809 15.2896 12.7219 15.2896 12.288Z" fill="#2FCFBC"/>
<path d="M12.9258 13.86C12.9258 13.4261 13.2848 13.082 13.7336 13.082C14.1675 13.082 14.5116 13.4411 14.5116 13.8749C14.5116 14.3088 14.1376 14.6679 13.7187 14.6529C13.2699 14.6529 12.9258 14.2938 12.9258 13.86Z" fill="#2FCFBC"/>
<path d="M6.61225 6.76855C7.04611 6.76855 7.40516 7.12761 7.40516 7.56147C7.40516 7.99533 7.04611 8.33942 6.61225 8.35438C6.17839 8.35438 5.81934 7.99533 5.81934 7.56147C5.81934 7.12761 6.16343 6.76855 6.61225 6.76855Z" fill="#2FCFBC"/>
</g>
<defs>
<clipPath id="clip0">
<path d="M0 0H19.2992V19H0V0Z" fill="white"/>
</clipPath>
</defs>
</svg>
