<svg width="16" height="20" viewBox="0 0 16 20" fill="none" xmlns="http://www.w3.org/2000/svg">
<path d="M6.05356 0.933333V19.0667H1.00023V0.933333H6.05356ZM6.30689 0H0.746891C0.373558 0 0.0668945 0.306667 0.0668945 0.68V19.32C0.0668945 19.6933 0.373558 20 0.746891 20H6.30689C6.68023 20 6.9869 19.6933 6.9869 19.32V0.666667C6.9869 0.293333 6.68023 0 6.30689 0Z" fill="#C2CEDB"/>
<path d="M6.57354 2.51953H3.72021" stroke="#C2CEDB" stroke-width="0.292326" stroke-miterlimit="10" stroke-linecap="round"/>
<path d="M6.57356 5.01367H3.06689" stroke="#C2CEDB" stroke-width="0.292326" stroke-miterlimit="10" stroke-linecap="round"/>
<path d="M6.57354 7.50684H3.72021" stroke="#C2CEDB" stroke-width="0.292326" stroke-miterlimit="10" stroke-linecap="round"/>
<path d="M6.57356 10H3.06689" stroke="#C2CEDB" stroke-width="0.292326" stroke-miterlimit="10" stroke-linecap="round"/>
<path d="M6.57354 12.4805H3.72021" stroke="#C2CEDB" stroke-width="0.292326" stroke-miterlimit="10" stroke-linecap="round"/>
<path d="M6.57356 14.9736H3.06689" stroke="#C2CEDB" stroke-width="0.292326" stroke-miterlimit="10" stroke-linecap="round"/>
<path d="M6.57354 17.4668H3.72021" stroke="#C2CEDB" stroke-width="0.292326" stroke-miterlimit="10" stroke-linecap="round"/>
<path d="M9.45312 3.3998L12.0531 0.799805L14.6798 3.42647" stroke="#C2CEDB" stroke-width="0.409257" stroke-miterlimit="10" stroke-linecap="round" stroke-linejoin="round"/>
<path d="M14.6798 16.5602L12.0798 19.1602L9.45312 16.5469" stroke="#C2CEDB" stroke-width="0.409257" stroke-miterlimit="10" stroke-linecap="round" stroke-linejoin="round"/>
<path d="M12.0532 0.826172V19.1595" stroke="#C2CEDB" stroke-width="0.409257" stroke-miterlimit="10" stroke-linecap="round" stroke-linejoin="round"/>
</svg>
