<svg width="20" height="20" viewBox="0 0 20 20" fill="none" xmlns="http://www.w3.org/2000/svg">
<path d="M13.96 4.05187L14.6177 7.85607L15.2351 7.21271L14.5774 3.39453L13.96 4.05187Z" fill="#029AF0"/>
<path d="M15.0337 2.91906L15.6914 6.73724L16.3089 6.09389L15.6511 2.26172L15.0337 2.91906Z" fill="#029AF0"/>
<path d="M6.85906 11.534C6.7651 11.6319 6.77852 11.8137 6.89933 11.8837L0 19.0725C1.18121 20.3033 3.08725 20.3033 4.26846 19.0725L8.25503 14.9186C8.2953 14.8767 8.32215 14.8347 8.34899 14.7788L8.40269 14.6669C8.4698 14.541 8.49664 14.3872 8.4698 14.2333C8.44295 14.1075 8.37584 13.9956 8.2953 13.9116L8.26846 13.8977C8.10738 13.7438 8.09396 13.4921 8.24161 13.3242L8.5906 12.9186L8.88591 13.1005C9.14094 13.2543 9.46309 13.2123 9.66443 13.0026L14.1342 8.34521L13.5034 4.54102L6.85906 11.534ZM6.10738 15.2963L3.69128 17.8137C3.61074 17.8977 3.50335 17.9396 3.40939 17.9396C3.31544 17.9396 3.20805 17.8977 3.12752 17.8137C2.96644 17.6459 2.96644 17.3802 3.12752 17.2263L5.54362 14.7089C5.7047 14.541 5.95973 14.541 6.10738 14.7089C6.25503 14.8627 6.25503 15.1284 6.10738 15.2963Z" fill="#029AF0"/>
<path d="M19.5302 0.472028C18.9262 -0.157343 17.9464 -0.157343 17.3423 0.472028L16.1074 1.77273L16.7651 5.60489L19.5168 2.73776C20.1343 2.10839 20.1343 1.08741 19.5302 0.472028Z" fill="#029AF0"/>
</svg>
