<svg width="15" height="20" viewBox="0 0 15 20" fill="none" xmlns="http://www.w3.org/2000/svg">
<g clip-path="url(#clip0)">
<path d="M7.4305 1.33344C10.4444 5.139 13.7777 10.1668 13.7777 12.5696C13.7777 16.0696 10.9305 18.9168 7.4305 18.9168C3.9305 18.9168 1.08328 16.0696 1.08328 12.5696C1.08328 10.1668 4.41661 5.139 7.4305 1.33344ZM7.4305 0.0556641C7.3055 0.0556641 7.16661 0.11122 7.06939 0.222331C5.61105 2.02789 0.097168 9.05566 0.097168 12.5696C0.097168 16.6112 3.37494 19.889 7.41661 19.889C11.4583 19.889 14.7361 16.6112 14.7361 12.5696C14.7361 9.06955 9.23605 2.02789 7.76383 0.222331C7.69439 0.11122 7.56939 0.0556641 7.4305 0.0556641Z" fill="#C2CEDB"/>
<path d="M10.8053 10.6666H8.81923C8.77756 10.6666 8.74978 10.6388 8.74978 10.5971V8.72211C8.74978 8.49989 8.56923 8.31934 8.33311 8.31934H6.52756C6.30534 8.31934 6.11089 8.49989 6.11089 8.72211V10.611C6.11089 10.6527 6.08311 10.6804 6.04145 10.6804H4.05534C3.83312 10.6804 3.63867 10.861 3.63867 11.0971V12.9166C3.63867 13.1388 3.81923 13.3332 4.05534 13.3332H6.04145C6.08311 13.3332 6.11089 13.361 6.11089 13.4027V15.2777C6.11089 15.4999 6.29145 15.6804 6.52756 15.6804H8.347C8.56923 15.6804 8.76367 15.4999 8.76367 15.2777V13.4027C8.76367 13.361 8.79145 13.3332 8.83312 13.3332H10.8192C11.0414 13.3332 11.2359 13.1527 11.2359 12.9166V11.0832C11.2081 10.8471 11.0276 10.6666 10.8053 10.6666Z" fill="#C2CEDB"/>
</g>
<defs>
<clipPath id="clip0">
<path d="M0 0H14.8611V20H0V0Z" fill="white"/>
</clipPath>
</defs>
</svg>
