<svg width="20" height="18" viewBox="0 0 20 18" fill="none" xmlns="http://www.w3.org/2000/svg">
<g clip-path="url(#clip0)">
<path d="M18.9634 3.00061H14.5525V1.60804C14.5525 0.721236 13.8327 0 12.9501 0H7.0499C6.16725 0 5.44755 0.721236 5.44755 1.60804V3.00061H1.03655C0.463958 3.00061 0 3.46556 0 4.03937V16.3525C0 16.9264 0.463958 17.3913 1.03655 17.3913H18.9634C19.536 17.3913 20 16.9264 20 16.3525V4.03937C20 3.46556 19.536 3.00061 18.9634 3.00061ZM6.57916 1.60804C6.57916 1.34721 6.78963 1.13402 7.0499 1.13402H12.9501C13.2104 1.13402 13.4208 1.34721 13.4208 1.60804V3.00061H6.57916V1.60804ZM14.3782 11.728C14.3782 12.007 14.1519 12.2315 13.8757 12.2315H11.5786V14.5336C11.5786 14.8125 11.3545 15.0371 11.0762 15.0371H8.92384C8.64547 15.0371 8.42141 14.8125 8.42141 14.5336V12.2315H6.12651C5.84814 12.2315 5.62182 12.007 5.62182 11.728V9.57111C5.62182 9.29441 5.84814 9.06761 6.12651 9.06761H8.42141V6.76782C8.42141 6.48885 8.64547 6.26205 8.92384 6.26205H11.0762C11.3545 6.26205 11.5786 6.48885 11.5786 6.76782V9.06761H13.8757C14.1519 9.06761 14.3782 9.29441 14.3782 9.57111V11.728Z" fill="#EB5757"/>
</g>
<defs>
<clipPath id="clip0">
<path d="M0 0H20V17.3913H0V0Z" fill="white"/>
</clipPath>
</defs>
</svg>
