<svg width="21" height="21" viewBox="0 0 21 21" fill="none" xmlns="http://www.w3.org/2000/svg">
<path d="M12.642 6.8457H8.45323C7.66677 6.8457 7.03418 7.47829 7.03418 8.26476V16.4713C7.03418 16.8646 7.35903 17.1894 7.75226 17.1894H13.343C13.7362 17.1894 14.0611 16.8646 14.0611 16.4713V8.26476C14.0781 7.49539 13.4285 6.8457 12.642 6.8457Z" stroke="#029AF0" stroke-miterlimit="10"/>
<path d="M12.4027 3.87109H8.67552C8.36778 3.87109 8.12842 4.11045 8.12842 4.4182V5.5466C8.12842 5.85435 8.12842 5.85435 8.43617 5.85435H12.6591C12.9669 5.85435 12.9669 5.85435 12.9669 5.5466V4.4182C12.9669 4.12755 12.7104 3.87109 12.4027 3.87109Z" fill="#029AF0"/>
<path d="M10.5393 20.4898C16.0348 20.4898 20.4898 16.0348 20.4898 10.5393C20.4898 5.04384 16.0348 0.588867 10.5393 0.588867C5.04385 0.588867 0.588867 5.04384 0.588867 10.5393C0.588867 16.0348 5.04385 20.4898 10.5393 20.4898Z" stroke="#029AF0" stroke-miterlimit="10"/>
<path d="M3.63184 17.7027L17.7027 3.63184" stroke="#029AF0" stroke-width="1.07477" stroke-miterlimit="10"/>
<path d="M14 9.625H7V10.9375V12.25H14V9.625Z" fill="#029AF0"/>
</svg>
