<svg width="115" height="20" viewBox="0 0 115 20" fill="none" xmlns="http://www.w3.org/2000/svg">
<path d="M0.856032 2.89373H8.17288C9.92156 2.89373 11.4632 3.2312 12.7977 3.90613C14.1475 4.56572 15.1906 5.50141 15.9269 6.71322C16.6785 7.92502 17.0543 9.33624 17.0543 10.9469C17.0543 12.5575 16.6785 13.9687 15.9269 15.1805C15.1906 16.3923 14.1475 17.3357 12.7977 18.0106C11.4632 18.6702 9.92156 19 8.17288 19H0.856032V2.89373ZM7.98881 15.9398C9.59943 15.9398 10.8803 15.495 11.8313 14.6053C12.7977 13.7003 13.2809 12.4808 13.2809 10.9469C13.2809 9.41294 12.7977 8.20113 11.8313 7.31145C10.8803 6.40643 9.59943 5.95392 7.98881 5.95392H4.58348V15.9398H7.98881ZM25.5026 19.1841C24.1987 19.1841 23.0253 18.9156 21.9822 18.3788C20.9545 17.8265 20.1492 17.0672 19.5663 16.1009C18.9834 15.1345 18.6919 14.0377 18.6919 12.8106C18.6919 11.5834 18.9834 10.4867 19.5663 9.52031C20.1492 8.55393 20.9545 7.80231 21.9822 7.26543C23.0253 6.71322 24.1987 6.43711 25.5026 6.43711C26.8064 6.43711 27.9722 6.71322 28.9999 7.26543C30.0277 7.80231 30.833 8.55393 31.4159 9.52031C31.9988 10.4867 32.2902 11.5834 32.2902 12.8106C32.2902 14.0377 31.9988 15.1345 31.4159 16.1009C30.833 17.0672 30.0277 17.8265 28.9999 18.3788C27.9722 18.9156 26.8064 19.1841 25.5026 19.1841ZM25.5026 16.2389C26.4229 16.2389 27.1746 15.9321 27.7575 15.3186C28.3557 14.6897 28.6548 13.8537 28.6548 12.8106C28.6548 11.7675 28.3557 10.9392 27.7575 10.3256C27.1746 9.69671 26.4229 9.38226 25.5026 9.38226C24.5822 9.38226 23.8229 9.69671 23.2247 10.3256C22.6265 10.9392 22.3273 11.7675 22.3273 12.8106C22.3273 13.8537 22.6265 14.6897 23.2247 15.3186C23.8229 15.9321 24.5822 16.2389 25.5026 16.2389ZM40.6718 19.1841C39.3526 19.1841 38.1638 18.9156 37.1054 18.3788C36.0623 17.8265 35.2417 17.0672 34.6434 16.1009C34.0605 15.1345 33.7691 14.0377 33.7691 12.8106C33.7691 11.5834 34.0605 10.4867 34.6434 9.52031C35.2417 8.55393 36.0623 7.80231 37.1054 7.26543C38.1638 6.71322 39.3526 6.43711 40.6718 6.43711C41.9756 6.43711 43.1107 6.71322 44.0771 7.26543C45.0588 7.80231 45.7721 8.57694 46.2169 9.58934L43.4328 11.0849C42.7886 9.94981 41.8606 9.38226 40.6488 9.38226C39.7131 9.38226 38.9384 9.68904 38.3249 10.3026C37.7113 10.9162 37.4045 11.7522 37.4045 12.8106C37.4045 13.869 37.7113 14.705 38.3249 15.3186C38.9384 15.9321 39.7131 16.2389 40.6488 16.2389C41.8759 16.2389 42.8039 15.6714 43.4328 14.5363L46.2169 16.0549C45.7721 17.0366 45.0588 17.8035 44.0771 18.3557C43.1107 18.908 41.9756 19.1841 40.6718 19.1841ZM56.4475 18.4018C56.0947 18.6625 55.6575 18.8619 55.136 19C54.6298 19.1227 54.0929 19.1841 53.5253 19.1841C52.0528 19.1841 50.91 18.8083 50.097 18.0566C49.2993 17.305 48.9005 16.2006 48.9005 14.7433V9.65836H46.9908V6.89729H48.9005V3.88312H52.4899V6.89729H55.5731V9.65836H52.4899V14.6973C52.4899 15.2189 52.6203 15.6254 52.8811 15.9168C53.1572 16.1929 53.5407 16.331 54.0315 16.331C54.5991 16.331 55.0823 16.1776 55.4811 15.8708L56.4475 18.4018ZM63.9707 19.1841C62.6668 19.1841 61.4934 18.9156 60.4503 18.3788C59.4226 17.8265 58.6173 17.0672 58.0344 16.1009C57.4515 15.1345 57.16 14.0377 57.16 12.8106C57.16 11.5834 57.4515 10.4867 58.0344 9.52031C58.6173 8.55393 59.4226 7.80231 60.4503 7.26543C61.4934 6.71322 62.6668 6.43711 63.9707 6.43711C65.2745 6.43711 66.4403 6.71322 67.468 7.26543C68.4958 7.80231 69.3011 8.55393 69.884 9.52031C70.4669 10.4867 70.7583 11.5834 70.7583 12.8106C70.7583 14.0377 70.4669 15.1345 69.884 16.1009C69.3011 17.0672 68.4958 17.8265 67.468 18.3788C66.4403 18.9156 65.2745 19.1841 63.9707 19.1841ZM63.9707 16.2389C64.891 16.2389 65.6427 15.9321 66.2255 15.3186C66.8238 14.6897 67.1229 13.8537 67.1229 12.8106C67.1229 11.7675 66.8238 10.9392 66.2255 10.3256C65.6427 9.69671 64.891 9.38226 63.9707 9.38226C63.0503 9.38226 62.291 9.69671 61.6928 10.3256C61.0946 10.9392 60.7954 11.7675 60.7954 12.8106C60.7954 13.8537 61.0946 14.6897 61.6928 15.3186C62.291 15.9321 63.0503 16.2389 63.9707 16.2389ZM76.5859 8.25482C77.0154 7.65659 77.5906 7.20408 78.3115 6.89729C79.0478 6.5905 79.8915 6.43711 80.8425 6.43711V9.7504C80.4437 9.71972 80.1753 9.70438 80.0372 9.70438C79.0095 9.70438 78.2042 9.99583 77.6213 10.5787C77.0384 11.1463 76.7469 12.0053 76.7469 13.1557V19H73.1575V6.62118H76.5859V8.25482ZM82.9768 6.62118H86.5662V19H82.9768V6.62118ZM84.7715 4.89551C84.1119 4.89551 83.575 4.70377 83.1609 4.32029C82.7467 3.9368 82.5396 3.46129 82.5396 2.89373C82.5396 2.32618 82.7467 1.85066 83.1609 1.46718C83.575 1.08369 84.1119 0.891953 84.7715 0.891953C85.4311 0.891953 85.9679 1.07602 86.3821 1.44417C86.7963 1.81231 87.0033 2.27249 87.0033 2.82471C87.0033 3.42294 86.7963 3.92147 86.3821 4.32029C85.9679 4.70377 85.4311 4.89551 84.7715 4.89551ZM100.09 16.2389V19H89.0461V16.8372L95.3506 9.38226H89.2072V6.62118H99.8833V8.78402L93.5789 16.2389H100.09ZM114.359 12.8566C114.359 12.9026 114.336 13.2248 114.29 13.823H104.925C105.094 14.59 105.493 15.1959 106.122 15.6407C106.751 16.0855 107.533 16.308 108.469 16.308C109.113 16.308 109.681 16.2159 110.171 16.0318C110.678 15.8324 111.145 15.5256 111.575 15.1115L113.485 17.1823C112.319 18.5168 110.616 19.1841 108.377 19.1841C106.981 19.1841 105.746 18.9156 104.672 18.3788C103.598 17.8265 102.77 17.0672 102.187 16.1009C101.604 15.1345 101.313 14.0377 101.313 12.8106C101.313 11.5988 101.597 10.5097 102.164 9.54332C102.747 8.5616 103.537 7.80231 104.534 7.26543C105.547 6.71322 106.674 6.43711 107.917 6.43711C109.128 6.43711 110.225 6.69788 111.207 7.21942C112.189 7.74095 112.955 8.49258 113.508 9.47429C114.075 10.4407 114.359 11.5681 114.359 12.8566ZM107.94 9.15217C107.127 9.15217 106.444 9.38226 105.892 9.84244C105.34 10.3026 105.002 10.9315 104.879 11.7292H110.977C110.854 10.9469 110.517 10.3256 109.964 9.86545C109.412 9.38993 108.737 9.15217 107.94 9.15217Z" fill="white"/>
</svg>
