<svg width="31" height="23" viewBox="0 0 31 23" fill="none" xmlns="http://www.w3.org/2000/svg">
<g clip-path="url(#clip0)">
<path d="M25.3047 0.5L24.6267 0.995434C21.776 3.08878 17.75 3.15683 13.8573 3.22217C9.57842 3.29294 5.15506 3.36916 2.4238 6.24649L2.11816 6.57315L6.9972 17.6959L7.70571 17.1678C11.1733 14.5763 15.3216 14.4919 19.3309 14.4103C23.3792 14.3313 27.2052 14.2524 30.2171 11.7425L30.6255 11.4023L25.3047 0.5ZM26.4439 10.9449C26.4439 11.3832 26.555 11.7943 26.7467 12.1536C24.5434 12.9457 21.976 12.9975 19.3031 13.0519C16.1468 13.1145 12.907 13.1798 9.87849 14.3967C9.4256 13.5963 8.55593 13.0546 7.55567 13.0546C7.2028 13.0546 6.86383 13.1227 6.5582 13.2479L4.54934 8.6665C4.57435 8.70461 4.59658 8.74272 4.62159 8.78083C5.34677 8.31534 5.82467 7.51502 5.82467 6.6031C5.82467 6.27371 5.76355 5.95522 5.64685 5.66395C7.90854 4.68397 10.8315 4.63497 13.8823 4.58325C16.8025 4.53425 19.7922 4.48253 22.4289 3.61416C22.9096 4.28925 23.7043 4.73025 24.6045 4.73025C25.0018 4.73025 25.3769 4.64314 25.7131 4.49342L27.7664 8.69916C26.9746 9.14832 26.4439 9.98675 26.4439 10.9449Z" fill="#029AF0"/>
<path d="M5.47937 22.5002L0.375 11.1474L1.64644 10.5986L6.02284 20.3328C11.502 16.2654 16.0079 16.3214 20.0048 16.371C23.1025 16.4105 26.0297 16.4458 29.1291 14.5798L29.8565 15.7394C26.4142 17.8121 23.292 17.7729 19.987 17.7321C15.8634 17.6809 11.5987 17.6273 6.18594 21.9375L5.47937 22.5002Z" fill="#029AF0"/>
<path d="M19.4694 8.90627C19.2638 7.34374 17.6968 6.01805 15.9824 5.94999C14.2625 5.88194 13.0317 7.09602 13.2373 8.65855C13.4429 10.2184 15.01 11.544 16.7271 11.6121C18.4442 11.6802 19.675 10.4661 19.4694 8.90627ZM17.5162 10.7791L16.7826 11.0241L16.6159 10.5477C16.5604 10.5532 16.5048 10.5559 16.4492 10.5559C16.3158 10.5559 16.1853 10.5368 16.063 10.5042C15.7435 10.4116 15.5073 10.2075 15.4128 9.94069L16.1491 9.69297C16.1519 9.70931 16.1936 9.74742 16.2797 9.77192C16.4103 9.81003 16.5798 9.79914 16.7437 9.74469C16.9327 9.67936 17.1411 9.55686 17.0633 9.33365C17.0021 9.15943 16.6715 9.13221 16.4075 9.13493C16.0519 9.14582 15.1072 9.16759 14.8905 8.4435C14.7516 7.98073 14.9905 7.49891 15.4517 7.22397L15.3128 6.82653L16.0463 6.57881L16.1964 7.00619C16.766 7.00075 17.1966 7.37096 17.3161 7.71123L16.9493 7.83645L16.5826 7.95895C16.5576 7.89906 16.3547 7.70035 16.0408 7.79018C15.774 7.86912 15.5879 8.07056 15.6351 8.23117C15.6657 8.33189 15.9546 8.38633 16.3881 8.37544C17.1522 8.35094 17.6245 8.59594 17.7968 9.08593C17.9663 9.56503 17.7857 10.0196 17.3494 10.2973L17.5162 10.7791Z" fill="#029AF0"/>
</g>
<defs>
<clipPath id="clip0">
<rect x="0.375" y="0.5" width="30.25" height="22" fill="white"/>
</clipPath>
</defs>
</svg>
