<svg width="28" height="28" viewBox="0 0 28 28" fill="none" xmlns="http://www.w3.org/2000/svg">
<g clip-path="url(#clip0)">
<path d="M16.5058 13.6702L14.7206 17.7507C14.5051 18.2474 13.8801 18.231 13.6825 17.726L11.6387 12.5413L10.5612 15.4847H7.18115L13.7364 23.1406C13.9915 23.4403 14.4045 23.4403 14.6596 23.1406L21.2184 15.4847H17.2996L16.5058 13.6702ZM22.0194 6.69571L21.9332 6.59308C20.0834 4.43382 17.0554 4.43382 15.2019 6.59308L14.1998 7.76714L13.1976 6.59719C11.3478 4.43382 8.3162 4.43382 6.46636 6.59719L6.38015 6.69571C4.63088 8.74004 4.55545 11.9954 6.11794 14.1711H9.79608L11.0856 10.6325C11.2795 10.1029 11.9333 10.0906 12.1416 10.6161L14.2321 15.9239L15.9922 11.9051C16.2041 11.4207 16.8075 11.4207 17.0195 11.9051L18.0108 14.1711H22.2816C23.8441 11.9954 23.7687 8.74004 22.0194 6.69571V6.69571Z" fill="#BB6BD9"/>
</g>
<defs>
<clipPath id="clip0">
<rect x="4.18018" y="4.17969" width="19.2277" height="19.2277" fill="white"/>
</clipPath>
</defs>
</svg>
