<svg width="22" height="20" viewBox="0 0 22 20" fill="none" xmlns="http://www.w3.org/2000/svg">
<g clip-path="url(#clip0)">
<path d="M5.24462 7.63964C7.35424 7.63964 9.06444 5.92945 9.06444 3.81982C9.06444 1.71019 7.35424 0 5.24462 0C3.13499 0 1.4248 1.71019 1.4248 3.81982C1.4248 5.92945 3.13499 7.63964 5.24462 7.63964Z" fill="#029AF0"/>
<path d="M16.2539 7.63964C18.3635 7.63964 20.0737 5.92945 20.0737 3.81982C20.0737 1.71019 18.3635 0 16.2539 0C14.1443 0 12.4341 1.71019 12.4341 3.81982C12.4341 5.92945 14.1443 7.63964 16.2539 7.63964Z" fill="#029AF0"/>
<path d="M13.1908 11.4772C13.1908 10.1979 12.1458 9.1709 10.8845 9.1709C9.60522 9.1709 8.57819 10.2159 8.57819 11.4772C8.57819 12.2159 8.92054 12.8646 9.46108 13.297C9.5872 13.4051 9.56918 13.6033 9.42504 13.6754C8.39801 14.1619 7.69531 15.225 7.69531 16.4322V19.4412C8.72234 19.6574 9.56919 19.7835 10.1277 19.8376C10.38 19.8736 10.6323 19.8916 10.8845 19.8916C11.1368 19.8916 11.389 19.8736 11.6413 19.8376C12.1638 19.7835 12.9025 19.6754 13.8214 19.4952V16.4322C13.8214 15.279 13.1728 14.27 12.2359 13.7475C12.0917 13.6574 12.0737 13.4592 12.2178 13.3691C12.8124 12.9547 13.1908 12.27 13.1908 11.4772Z" fill="#029AF0"/>
<path d="M6.63203 19.1349C6.63203 19.0809 6.61401 19.0448 6.61401 18.9908V16.4322C6.61401 15.207 7.15455 14.0899 8.03743 13.3151C7.69509 12.7746 7.49689 12.1439 7.49689 11.4773C7.49689 10.0178 8.43383 8.77457 9.73113 8.28809C8.66806 8.28809 6.77618 8.28809 4.12753 8.28809C-0.196796 8.28809 0.00139738 12.4142 0.00139738 12.4142V16.7746C2.27167 17.9638 4.66806 18.6845 6.63203 19.1349Z" fill="#029AF0"/>
<path d="M17.389 8.28809C14.9566 8.28809 13.1548 8.28809 12.0557 8.28809C13.353 8.75655 14.2899 9.9998 14.2899 11.4773C14.2899 12.198 14.0557 12.8827 13.6412 13.4593C14.434 14.216 14.9025 15.2791 14.9025 16.4322V19.0448C14.9025 19.0809 14.9025 19.0989 14.9025 19.1349C16.8485 18.6845 19.2448 17.9638 21.5331 16.7926V12.4322C21.5151 12.4322 21.7133 8.28809 17.389 8.28809Z" fill="#029AF0"/>
</g>
<defs>
<clipPath id="clip0">
<path d="M0 0H21.6216V20H0V0Z" fill="white"/>
</clipPath>
</defs>
</svg>
