<svg width="18" height="22" viewBox="0 0 18 22" fill="none" xmlns="http://www.w3.org/2000/svg">
<path d="M17.2635 6.65312C17.1135 6.62257 13.5285 5.82812 8.96851 5.82812C4.39351 5.82812 0.778509 6.74479 0.628509 6.77535C0.178509 6.88229 -0.0914912 7.3559 0.0285089 7.79896C0.118509 8.1809 0.463503 8.44062 0.838504 8.44062C0.898504 8.44062 0.973507 8.42535 1.04851 8.41007C1.07851 8.41007 3.26851 7.84479 6.32851 7.61562V14.1545V20.8156C6.32851 21.4267 6.80851 21.9156 7.40851 21.9156C8.00851 21.9156 8.4885 21.4267 8.4885 20.8156V14.1545H9.47851V20.8156C9.47851 21.4267 9.95851 21.9156 10.5585 21.9156C11.1585 21.9156 11.6385 21.4267 11.6385 20.8156V14.1545V7.60035C14.7135 7.79896 16.9035 8.28784 16.9335 8.30312C17.3835 8.41007 17.8185 8.11979 17.9235 7.66146C17.9985 7.20312 17.7135 6.74479 17.2635 6.65312Z" fill="#029AF0"/>
<path d="M10.7882 3.38103C11.2035 2.35981 10.7274 1.18902 9.72475 0.766008C8.7221 0.342996 7.5726 0.827945 7.15728 1.84916C6.74196 2.87038 7.21808 4.04116 8.22074 4.46417C9.22339 4.88718 10.3729 4.40225 10.7882 3.38103Z" fill="#029AF0"/>
<path d="M2.32345 6.05552C2.41345 6.13191 2.51845 6.16246 2.62345 6.16246C2.77345 6.16246 2.92344 6.10135 3.01344 5.96385C3.85344 4.84858 4.97845 3.99302 6.25345 3.47358C6.50845 3.36663 6.62844 3.07636 6.53844 2.81663C6.43344 2.55691 6.14845 2.43469 5.89345 2.52636C4.45345 3.10691 3.17845 4.08469 2.23345 5.33747C2.06845 5.56663 2.11345 5.88747 2.32345 6.05552Z" fill="#029AF0"/>
<path d="M5.35338 17.5151C2.93838 16.1401 1.43838 13.5276 1.43838 10.7165C1.43838 10.3651 1.46838 9.99846 1.51338 9.66235C1.54338 9.38735 1.36338 9.12763 1.09338 9.09707C0.823381 9.06651 0.568379 9.24985 0.538379 9.52485C0.478379 9.92207 0.463379 10.3193 0.463379 10.7165C0.463379 13.8943 2.15838 16.8429 4.88838 18.4012C4.96338 18.4471 5.05338 18.4623 5.12838 18.4623C5.30838 18.4623 5.47338 18.3707 5.56338 18.2026C5.66838 17.9582 5.59338 17.6526 5.35338 17.5151Z" fill="#029AF0"/>
<path d="M17.1284 9.40251C16.8584 9.43307 16.6484 9.67751 16.6784 9.95251C16.7084 10.197 16.7084 10.4567 16.7084 10.7164C16.7084 13.7108 15.0584 16.3997 12.4184 17.7136C12.1784 17.8358 12.0734 18.1414 12.1934 18.3858C12.2834 18.5692 12.4634 18.6761 12.6434 18.6761C12.7184 18.6761 12.7934 18.6608 12.8684 18.6303C15.8534 17.1483 17.7134 14.1081 17.7134 10.7164C17.7134 10.4261 17.6984 10.1358 17.6684 9.86084C17.6384 9.57057 17.3984 9.37196 17.1284 9.40251Z" fill="#029AF0"/>
<path d="M11.6985 3.39815C12.9585 3.87176 14.0835 4.6662 14.9385 5.72037C15.0435 5.84259 15.1785 5.9037 15.3285 5.9037C15.4485 5.9037 15.5535 5.85787 15.6435 5.78148C15.8535 5.59815 15.8835 5.27731 15.7035 5.06342C14.7285 3.87176 13.4685 2.97037 12.0435 2.43565C11.7885 2.34398 11.5035 2.48148 11.3985 2.7412C11.3085 3.0162 11.4435 3.30648 11.6985 3.39815Z" fill="#029AF0"/>
</svg>
