<svg width="24" height="14" viewBox="0 0 24 14" fill="none" xmlns="http://www.w3.org/2000/svg">
<path d="M22.8562 5.04156C20.2468 2.52881 17.1703 1.04693 13.5623 0.74089C8.66561 0.322098 4.44548 1.80398 0.966281 5.33149C0.515275 5.7825 0.563595 6.10465 0.934065 6.57176C2.36762 8.34357 3.73675 10.1798 5.18642 11.9355C5.44414 12.2577 6.0079 12.4832 6.42669 12.4993C8.31125 12.5637 10.1958 12.5315 12.0804 12.5315C13.9327 12.5315 15.7851 12.5798 17.6374 12.4993C18.0884 12.4832 18.6522 12.2093 18.9421 11.8711C20.3274 10.212 21.5837 8.45633 22.9851 6.81337C23.581 6.07243 23.4844 5.63753 22.8562 5.04156Z" stroke="#C2CEDB" stroke-width="1.009257" stroke-miterlimit="10"/>
<path d="M15.8657 11.0178H13.1274L15.8657 3.70508V11.0178Z" fill="#C2CEDB"/>
</svg>
