<svg width="20" height="20" viewBox="0 0 20 20" fill="none" xmlns="http://www.w3.org/2000/svg">
<path d="M19.7889 0.144444C19.5963 -0.0481482 19.3 -0.0481482 19.1074 0.144444L14.9593 4.29259L14.2333 3.56667C13.9667 3.3 13.6259 3.15185 13.2407 3.15185C12.8704 3.15185 12.5148 3.3 12.2481 3.56667L11.0037 4.81111L9.28519 6.54445L3.18148 12.6333L2.44074 11.8926C2.24815 11.7 1.95185 11.7 1.75926 11.8926C1.56667 12.0852 1.56667 12.3815 1.75926 12.5741L4.21852 15.0333L1.83333 17.4185L0.825926 16.4111C0.633333 16.2185 0.337037 16.2185 0.144444 16.4111C-0.0481482 16.6037 -0.0481482 16.9 0.144444 17.0926L1.49259 18.4407L2.84074 19.7889C2.92963 19.8778 3.06296 19.9222 3.18148 19.9222C3.3 19.9222 3.43333 19.8778 3.52222 19.7889C3.71482 19.5963 3.71482 19.3 3.52222 19.1074L2.51482 18.1L4.9 15.7148L7.35926 18.1741C7.44815 18.263 7.58148 18.3074 7.7 18.3074C7.81852 18.3074 7.95185 18.263 8.04074 18.1741C8.23333 17.9815 8.23333 17.6852 8.04074 17.4926L7.3 16.7519L16.3815 7.67037C16.6481 7.4037 16.7963 7.06296 16.7963 6.67778C16.7963 6.30741 16.6481 5.95185 16.3815 5.68519L15.6556 4.95926L19.8037 0.811111C19.9815 0.633333 19.9815 0.337037 19.7889 0.144444ZM15.8185 6.69259C15.8185 6.81111 15.7741 6.91482 15.6852 7.0037L6.6037 16.0852L3.86296 13.3148L4.36667 12.8111L5.74445 14.1889C5.83333 14.2778 5.96667 14.3222 6.08519 14.3222C6.2037 14.3222 6.33704 14.2778 6.42593 14.1889C6.61852 13.9963 6.61852 13.7 6.42593 13.5074L5.04815 12.1296L6.15926 11.0185L6.84074 11.7C6.92963 11.7889 7.06296 11.8333 7.18148 11.8333C7.3 11.8333 7.43333 11.7889 7.52222 11.7C7.71482 11.5074 7.71482 11.2111 7.52222 11.0185L6.84074 10.337L7.98148 9.1963L9.35926 10.5741C9.44815 10.663 9.58148 10.7074 9.7 10.7074C9.81852 10.7074 9.95185 10.663 10.0407 10.5741C10.2333 10.3815 10.2333 10.0852 10.0407 9.89259L8.66296 8.51482L9.62593 7.55185L11.5074 9.43333C11.5963 9.52222 11.7296 9.56667 11.8481 9.56667C11.9667 9.56667 12.1 9.52222 12.1889 9.43333C12.3815 9.24074 12.3815 8.94445 12.1889 8.75185L10.3074 6.88519L11.3593 5.83333L12.1593 6.63333C12.2481 6.72222 12.3815 6.76667 12.5 6.76667C12.6185 6.76667 12.7519 6.72222 12.8407 6.63333C13.0333 6.44074 13.0333 6.14445 12.8407 5.95185L12.0407 5.15185L12.9444 4.24815C13.1074 4.08519 13.3889 4.08519 13.5519 4.24815L14.6185 5.31482L15.6852 6.38148C15.7741 6.47037 15.8185 6.57408 15.8185 6.69259Z" fill="#029AF0"/>
</svg>
