<svg width="82" height="82" viewBox="0 0 26 26" fill="none" xmlns="http://www.w3.org/2000/svg">
<path fill-rule="evenodd" clip-rule="evenodd" d="M9.43986 2.41543C9.43986 1.96086 9.81995 1.58368 10.2839 1.58368H12.4686C18.8955 1.58368 24.1077 6.73044 24.1077 13.0709C24.1077 19.4113 18.8955 24.5581 12.4686 24.5581H10.2839C9.81995 24.5581 9.43986 24.1809 9.43986 23.7264V21.8244H11.0916C11.9303 21.8244 12.6166 21.1492 12.6166 20.3238V16.6973H16.302C17.1408 16.6973 17.8271 16.0221 17.8271 15.1967V10.945C17.8271 10.1196 17.1408 9.44434 16.302 9.44434H12.6166V5.81784C12.6166 4.9925 11.9303 4.31722 11.0916 4.31722H9.43986V2.41543ZM8.04366 4.31722V2.41543C8.04366 1.19557 9.0515 0.202759 10.2839 0.202759H12.5072C19.6848 0.223299 25.5039 5.97786 25.5039 13.0709C25.5039 20.1639 19.6848 25.9184 12.5072 25.939L10.2839 25.939C9.0515 25.939 8.04366 24.9462 8.04366 23.7264V21.8244H6.77066C5.9319 21.8244 5.24564 21.1492 5.24564 20.3238V16.6973H1.56018C0.721415 16.6973 0.0351562 16.0221 0.0351562 15.1967V10.945C0.0351562 10.1196 0.721415 9.44434 1.56018 9.44434H5.24564V5.81784C5.24564 4.9925 5.9319 4.31722 6.77066 4.31722H8.04366ZM11.2056 5.81784V10.8355H16.302C16.33 10.8355 16.3577 10.8455 16.3824 10.8698C16.4071 10.8941 16.4161 10.9201 16.4161 10.945V15.1967C16.4161 15.2216 16.4071 15.2476 16.3824 15.2718C16.3577 15.2962 16.33 15.3062 16.302 15.3062H11.2056V20.3238C11.2056 20.3487 11.1966 20.3747 11.1719 20.399C11.1472 20.4233 11.1195 20.4333 11.0916 20.4333H6.77066C6.74274 20.4333 6.71502 20.4233 6.69029 20.399C6.66561 20.3747 6.65657 20.3487 6.65657 20.3238V15.3062H1.56018C1.53226 15.3062 1.50453 15.2962 1.4798 15.2718C1.45512 15.2476 1.44608 15.2216 1.44608 15.1967V10.945C1.44608 10.9201 1.45512 10.8941 1.4798 10.8698C1.50453 10.8455 1.53225 10.8355 1.56018 10.8355H6.65657V5.81784C6.65657 5.79298 6.66561 5.76699 6.69029 5.7427C6.71502 5.71837 6.74274 5.70837 6.77066 5.70837H11.0916C11.1195 5.70837 11.1472 5.71837 11.1719 5.7427C11.1966 5.76699 11.2056 5.79298 11.2056 5.81784Z" fill="#2FCFBC"/>
</svg>
