<svg width="22" height="19" viewBox="0 0 22 19" fill="none" xmlns="http://www.w3.org/2000/svg">
<g clip-path="url(#clip0)">
<path d="M2.83769 7.25879L0.41374 12.0145C-0.534763 13.872 0.202962 16.1378 2.06045 17.0863C3.91793 18.0348 6.1838 17.2971 7.1323 15.4396L9.55625 10.6839L2.83769 7.25879Z" fill="#029AF0"/>
<path d="M8.84476 0.526946C9.35853 0.526946 9.84595 0.645509 10.307 0.882635C11.0843 1.27784 11.6507 1.9497 11.9142 2.76647C12.1777 3.59641 12.1118 4.46587 11.7166 5.24311L9.52979 9.52455L3.74655 6.58683L5.94655 2.29222C6.51302 1.1988 7.61961 0.526946 8.84476 0.526946ZM8.84476 0C7.4747 0 6.14416 0.750899 5.48547 2.05509L3.06152 6.81078L9.78009 10.2359L12.204 5.48024C13.1525 3.62275 12.4148 1.35689 10.5573 0.408383C10.004 0.131737 9.4244 0 8.84476 0Z" fill="#029AF0"/>
<path d="M20.1745 16.401C22.4403 14.1352 22.4403 10.4597 20.1745 8.18066L11.9541 16.401C14.2331 18.6669 17.9086 18.6669 20.1745 16.401Z" fill="#029AF0"/>
<path d="M11.6115 7.82538C9.34564 10.0912 9.34564 13.7667 11.6115 16.0457L19.8319 7.82538C17.5528 5.55951 13.8774 5.55951 11.6115 7.82538Z" fill="#029AF0"/>
</g>
<defs>
<clipPath id="clip0">
<path d="M0 0H22V18.1796H0V0Z" fill="white"/>
</clipPath>
</defs>
</svg>
