<svg width="19" height="20" viewBox="0 0 19 20" fill="none" xmlns="http://www.w3.org/2000/svg">
<g clip-path="url(#clip0)">
<path d="M9.38767 2.19425C13.271 2.19425 16.4229 5.34613 16.4229 9.22947C16.4229 13.1128 13.271 16.2647 9.38767 16.2647C5.50434 16.2647 2.35245 13.1128 2.35245 9.22947C2.35245 5.34613 5.51764 2.19425 9.38767 2.19425ZM9.38767 1.5293C5.13196 1.5293 1.6875 4.97376 1.6875 9.22947C1.6875 13.4852 5.14526 16.9296 9.38767 16.9296C13.6301 16.9296 17.0878 13.4852 17.0878 9.22947C17.0878 4.97376 13.6434 1.5293 9.38767 1.5293Z" fill="#C2CEDB"/>
<path d="M9.38777 0.664954C14.1089 0.664954 17.9524 4.50839 17.9524 9.22957C17.9524 13.9507 14.1089 17.7942 9.38777 17.7942C4.66659 17.7942 0.823158 13.9507 0.823158 9.22957C0.823158 4.50839 4.66659 0.664954 9.38777 0.664954ZM9.38777 0C4.29422 0 0.158203 4.13602 0.158203 9.22957C0.158203 14.3231 4.29422 18.4591 9.38777 18.4591C14.4813 18.4591 18.6173 14.3231 18.6173 9.22957C18.6173 4.13602 14.4946 0 9.38777 0Z" fill="#C2CEDB"/>
<path d="M9.38776 10.5861C10.1369 10.5861 10.7443 9.97873 10.7443 9.22955C10.7443 8.48038 10.1369 7.87305 9.38776 7.87305C8.63858 7.87305 8.03125 8.48038 8.03125 9.22955C8.03125 9.97873 8.63858 10.5861 9.38776 10.5861Z" fill="#C2CEDB"/>
<path d="M9.3877 18.5V19.5493" stroke="#C2CEDB" stroke-width="0.906466" stroke-miterlimit="10" stroke-linecap="round"/>
<path d="M9.3877 9.22967L12.7258 5.8916" stroke="#C2CEDB" stroke-width="0.906466" stroke-miterlimit="10" stroke-linecap="round"/>
<path d="M9.38778 4.50798C9.70361 4.50798 9.95964 4.25195 9.95964 3.93612C9.95964 3.62029 9.70361 3.36426 9.38778 3.36426C9.07195 3.36426 8.81592 3.62029 8.81592 3.93612C8.81592 4.25195 9.07195 4.50798 9.38778 4.50798Z" fill="#C2CEDB"/>
<path d="M5.65096 6.06462C5.96679 6.06462 6.22282 5.80859 6.22282 5.49276C6.22282 5.17693 5.96679 4.9209 5.65096 4.9209C5.33513 4.9209 5.0791 5.17693 5.0791 5.49276C5.0791 5.80859 5.33513 6.06462 5.65096 6.06462Z" fill="#C2CEDB"/>
<path d="M4.09481 9.80095C4.41064 9.80095 4.66667 9.54492 4.66667 9.22909C4.66667 8.91326 4.41064 8.65723 4.09481 8.65723C3.77898 8.65723 3.52295 8.91326 3.52295 9.22909C3.52295 9.54492 3.77898 9.80095 4.09481 9.80095Z" fill="#C2CEDB"/>
<path d="M5.65096 13.5509C5.96679 13.5509 6.22282 13.2949 6.22282 12.9791C6.22282 12.6633 5.96679 12.4072 5.65096 12.4072C5.33513 12.4072 5.0791 12.6633 5.0791 12.9791C5.0791 13.2949 5.33513 13.5509 5.65096 13.5509Z" fill="#C2CEDB"/>
<path d="M9.38778 15.0939C9.70361 15.0939 9.95964 14.8379 9.95964 14.5221C9.95964 14.2062 9.70361 13.9502 9.38778 13.9502C9.07195 13.9502 8.81592 14.2062 8.81592 14.5221C8.81592 14.8379 9.07195 15.0939 9.38778 15.0939Z" fill="#C2CEDB"/>
<path d="M13.1383 13.5509C13.4541 13.5509 13.7101 13.2949 13.7101 12.9791C13.7101 12.6633 13.4541 12.4072 13.1383 12.4072C12.8224 12.4072 12.5664 12.6633 12.5664 12.9791C12.5664 13.2949 12.8224 13.5509 13.1383 13.5509Z" fill="#C2CEDB"/>
<path d="M14.6944 9.80095C15.0102 9.80095 15.2663 9.54492 15.2663 9.22909C15.2663 8.91326 15.0102 8.65723 14.6944 8.65723C14.3786 8.65723 14.1226 8.91326 14.1226 9.22909C14.1226 9.54492 14.3786 9.80095 14.6944 9.80095Z" fill="#C2CEDB"/>
</g>
<defs>
<clipPath id="clip0">
<path d="M0 0H18.8732V20H0V0Z" fill="white"/>
</clipPath>
</defs>
</svg>
