<svg width="21" height="22" viewBox="0 0 21 22" fill="none" xmlns="http://www.w3.org/2000/svg">
<path d="M11.9575 14.4349H17.863C18.3675 14.4349 18.8423 14.242 19.1985 13.8859C19.9404 13.144 19.9404 11.9421 19.1985 11.215C18.8423 10.8589 18.3675 10.666 17.863 10.666H16.8541" stroke="#C2CEDB" stroke-width="0.725173" stroke-miterlimit="10" stroke-linecap="round"/>
<path d="M17.5962 15.5029H19.3768C19.5696 15.5029 19.7477 15.5771 19.8961 15.7107C20.178 15.9926 20.178 16.4526 19.8961 16.7345L19.8516 16.779C19.718 16.9125 19.5251 16.9867 19.3322 16.9867H19.0206" stroke="#C2CEDB" stroke-width="0.725173" stroke-miterlimit="10" stroke-linecap="round"/>
<path d="M11.9575 15.8438H15.6819C16.0528 15.8438 16.4237 15.9921 16.6908 16.2592C17.2398 16.8082 17.2398 17.7133 16.6908 18.2623L16.6463 18.3069C16.3792 18.5739 16.0231 18.7223 15.6373 18.7223H15.1477" stroke="#C2CEDB" stroke-width="0.725173" stroke-miterlimit="10" stroke-linecap="round"/>
<path d="M5.91848 21.4079C5.91848 20.2061 5.91848 19.019 5.91848 17.8023C6.45264 17.8023 6.95713 17.7875 7.47646 17.8023C8.24804 17.832 8.88607 17.5352 9.44991 17.0307C9.98408 16.5411 10.3402 15.9476 10.4292 15.2205C10.4292 15.1611 10.4441 15.1018 10.4441 15.0424C10.4441 14.2115 10.4441 13.3806 10.4441 12.5348C10.4441 12.4161 10.4737 12.3716 10.5776 12.3419C11.3492 12.1045 12.1207 11.8523 12.8775 11.6149C12.8923 11.6149 12.9072 11.6 12.9368 11.6C13.1742 11.5258 13.2188 11.3923 13.0852 11.1846C12.7588 10.6801 12.4175 10.1904 12.0911 9.70077C11.5717 8.92919 11.0673 8.15762 10.5479 7.38604C10.4737 7.28217 10.4441 7.17831 10.4441 7.0596C10.4441 6.199 10.3402 5.36807 10.0286 4.56682C9.46476 3.09786 8.42609 2.11856 7.01648 1.48052C6.06685 1.05022 5.05787 0.84249 4.03405 0.723786C3.29215 0.649596 2.55025 0.605082 1.80835 0.649596C1.4374 0.664434 1.08129 0.723786 0.680664 0.7683" stroke="#C2CEDB" stroke-width="0.906466" stroke-miterlimit="10" stroke-linecap="round"/>
<path d="M7.71371 7.86133C8.2182 7.86133 8.61883 8.27679 8.61883 8.76644C8.61883 9.2561 8.20336 9.65672 7.71371 9.67156C7.22405 9.67156 6.80859 9.2561 6.80859 8.76644C6.80859 8.26195 7.20922 7.86133 7.71371 7.86133Z" fill="#C2CEDB"/>
</svg>
