<svg width="18" height="26" viewBox="0 0 18 26" fill="none" xmlns="http://www.w3.org/2000/svg">
<path d="M9.01651 1.03729C9.96739 1.03729 10.7454 1.81529 10.7454 2.76617V14.4707V15.0239L11.2295 15.266C13.0102 16.1131 14.1686 17.9458 14.1686 19.9167C14.1686 22.752 11.8519 25.0687 9.01651 25.0687C6.18114 25.0687 3.86444 22.752 3.86444 19.9167C3.86444 17.9458 5.02279 16.1131 6.80354 15.266L7.28763 15.0239V14.4707V2.76617C7.28763 1.81529 8.06562 1.03729 9.01651 1.03729ZM9.01651 0.172852C7.58154 0.172852 6.42319 1.3312 6.42319 2.76617V14.4707C4.40039 15.4389 3 17.5135 3 19.8994C3 23.2188 5.69706 25.9159 9.01651 25.9159C12.336 25.9159 15.033 23.2188 15.033 19.8994C15.033 17.4962 13.6326 15.4389 11.6098 14.4707V2.76617C11.6098 1.3312 10.4515 0.172852 9.01651 0.172852Z" fill="#C2CEDB"/>
<path d="M9 22C10.1046 22 11 21.1046 11 20C11 18.8954 10.1046 18 9 18C7.89543 18 7 18.8954 7 20C7 21.1046 7.89543 22 9 22Z" fill="#C2CEDB"/>
<path d="M9 19.8993V6.12012" stroke="#C2CEDB" stroke-width="0.5" stroke-miterlimit="10" stroke-linecap="round"/>
</svg>
