<svg width="26" height="22" viewBox="0 0 26 22" fill="none" xmlns="http://www.w3.org/2000/svg">
<path d="M23.891 3.77227H18.3338V2.02157C18.3338 0.906713 17.4271 0 16.3151 0H8.88179C7.76978 0 6.86307 0.906713 6.86307 2.02157V3.77227H1.30589C0.584516 3.77227 0 4.35678 0 5.07816V20.5579C0 21.2792 0.584516 21.8637 1.30589 21.8637H23.891C24.6124 21.8637 25.1969 21.2792 25.1969 20.5579V5.07816C25.1969 4.35678 24.6124 3.77227 23.891 3.77227ZM8.28872 2.02157C8.28872 1.69367 8.55389 1.42565 8.88179 1.42565H16.3151C16.643 1.42565 16.9082 1.69367 16.9082 2.02157V3.77227H8.28872V2.02157ZM18.1143 14.7441C18.1143 15.0948 17.8292 15.377 17.4813 15.377H14.5872V18.2711C14.5872 18.6218 14.305 18.9041 13.9542 18.9041H11.2427C10.892 18.9041 10.6097 18.6218 10.6097 18.2711V15.377H7.71846C7.36775 15.377 7.08262 15.0948 7.08262 14.7441V12.0325C7.08262 11.6846 7.36775 11.3995 7.71846 11.3995H10.6097V8.50827C10.6097 8.15756 10.892 7.87243 11.2427 7.87243H13.9542C14.305 7.87243 14.5872 8.15756 14.5872 8.50827V11.3995H17.4813C17.8292 11.3995 18.1143 11.6846 18.1143 12.0325V14.7441V14.7441Z" fill="#029AF0"/>
</svg>
